<svg width="253" height="262" viewBox="0 0 253 262" fill="none" xmlns="http://www.w3.org/2000/svg">
<rect width="302.153" height="47.3448" rx="23.6724" transform="matrix(0.615662 -0.788011 0.907496 0.420061 23.3843 242.02)" fill="#C57035"/>
<rect width="303.411" height="47.3448" rx="23.6724" transform="matrix(0.615662 0.788011 -0.907496 0.420061 43.0334 0.240234)" fill="#E49E6D"/>
<path d="M193.919 256.039C180.156 255.187 170.174 243.381 171.621 229.668L193.022 26.9458C194.47 13.2334 206.8 2.80807 220.562 3.66009V3.66009C234.324 4.51212 244.307 16.3189 242.86 30.0313L221.459 232.754C220.011 246.466 207.681 256.891 193.919 256.039V256.039Z" fill="#E49E6D"/>
<rect width="255.024" height="49.9326" rx="24.9663" transform="matrix(0.105158 0.994456 -0.998083 0.0618944 57.3914 0.913086)" fill="#C57035"/>
</svg>
